<svg width="1440" height="1024" viewBox="0 0 1440 1024" fill="none" xmlns="http://www.w3.org/2000/svg">
<g clip-path="url(#clip0_1_8)">
<rect width="1440" height="1024" fill="white"/>
<path d="M0 0V1024.12" stroke="#E8E9EA"/>
<path d="M97.625 0.625V1024.75" stroke="#E8E9EA"/>
<path d="M215.245 0.625V1024.75" stroke="#E8E9EA"/>
<path d="M332.865 0.625V1024.75" stroke="#E8E9EA"/>
<path d="M450.485 0.625V1024.75" stroke="#E8E9EA"/>
<path d="M568.105 0.625V1024.75" stroke="#E8E9EA"/>
<path d="M685.725 0.625V1024.75" stroke="#E8E9EA"/>
<path d="M803.345 0.625V1024.75" stroke="#E8E9EA"/>
<path d="M920.965 0.625V1024.75" stroke="#E8E9EA"/>
<path d="M1038.59 0.625V1024.75" stroke="#E8E9EA"/>
<path d="M1156.21 0.625V1024.75" stroke="#E8E9EA"/>
<path d="M1273.83 0.625V1024.75" stroke="#E8E9EA"/>
<path d="M1391.45 0.625V1024.75" stroke="#E8E9EA"/>
<path d="M-29 215L1439 215" stroke="#E8E9EA"/>
<path d="M-29 333L1439 333" stroke="#E8E9EA"/>
<path d="M-29 451L1439 451" stroke="#E8E9EA"/>
<path d="M-29 569L1439 569" stroke="#E8E9EA"/>
<path d="M-29 687L1439 687" stroke="#E8E9EA"/>
<path d="M-29 805L1439 805" stroke="#E8E9EA"/>
<path d="M-29 923L1439 923" stroke="#E8E9EA"/>
<path d="M-28 97L1440 96.9999" stroke="#E8E9EA"/>
</g>
<defs>
<clipPath id="clip0_1_8">
<rect width="1440" height="1024" fill="white"/>
</clipPath>
</defs>
</svg>
